<mxfile host="app.diagrams.net" modified="2022-07-14T09:48:05.826Z" agent="5.0 (Windows NT 10.0; Win64; x64) AppleWebKit/537.36 (KHTML, like Gecko) Chrome/103.0.0.0 Safari/537.36" etag="DIBF9Ss0wWH4FG9njZMZ" version="20.0.4" type="github">
  <diagram name="Page-1" id="13e1069c-82ec-6db2-03f1-153e76fe0fe0">
    <mxGraphModel dx="1422" dy="796" grid="1" gridSize="10" guides="1" tooltips="1" connect="1" arrows="1" fold="1" page="1" pageScale="1" pageWidth="1100" pageHeight="850" background="none" math="0" shadow="0">
      <root>
        <mxCell id="0" />
        <mxCell id="1" parent="0" />
        <mxCell id="7baba1c4bc27f4b0-2" value=":Website" style="shape=umlLifeline;perimeter=lifelinePerimeter;whiteSpace=wrap;html=1;container=1;collapsible=0;recursiveResize=0;outlineConnect=0;rounded=1;shadow=0;comic=0;labelBackgroundColor=none;strokeWidth=1;fontFamily=Verdana;fontSize=12;align=center;" parent="1" vertex="1">
          <mxGeometry x="260" y="40" width="100" height="990" as="geometry" />
        </mxCell>
        <mxCell id="7baba1c4bc27f4b0-10" value="" style="html=1;points=[];perimeter=orthogonalPerimeter;rounded=0;shadow=0;comic=0;labelBackgroundColor=none;strokeWidth=1;fontFamily=Verdana;fontSize=12;align=center;" parent="7baba1c4bc27f4b0-2" vertex="1">
          <mxGeometry x="45" y="110" width="10" height="330" as="geometry" />
        </mxCell>
        <mxCell id="9SuFW2p2b2IJ2_6pO1Bd-27" value="" style="html=1;points=[];perimeter=orthogonalPerimeter;" vertex="1" parent="7baba1c4bc27f4b0-2">
          <mxGeometry x="45" y="650" width="10" height="150" as="geometry" />
        </mxCell>
        <mxCell id="9SuFW2p2b2IJ2_6pO1Bd-35" value="Display availlable flights" style="html=1;verticalAlign=bottom;endArrow=open;dashed=1;endSize=8;rounded=0;exitX=0.5;exitY=1;exitDx=0;exitDy=0;exitPerimeter=0;" edge="1" parent="7baba1c4bc27f4b0-2" target="9SuFW2p2b2IJ2_6pO1Bd-26">
          <mxGeometry relative="1" as="geometry">
            <mxPoint x="45" y="800" as="sourcePoint" />
            <mxPoint x="-90" y="800" as="targetPoint" />
          </mxGeometry>
        </mxCell>
        <mxCell id="7baba1c4bc27f4b0-3" value=":Database" style="shape=umlLifeline;perimeter=lifelinePerimeter;whiteSpace=wrap;html=1;container=1;collapsible=0;recursiveResize=0;outlineConnect=0;rounded=1;shadow=0;comic=0;labelBackgroundColor=none;strokeWidth=1;fontFamily=Verdana;fontSize=12;align=center;" parent="1" vertex="1">
          <mxGeometry x="400" y="40" width="100" height="990" as="geometry" />
        </mxCell>
        <mxCell id="9SuFW2p2b2IJ2_6pO1Bd-31" value="" style="html=1;points=[];perimeter=orthogonalPerimeter;" vertex="1" parent="7baba1c4bc27f4b0-3">
          <mxGeometry x="45" y="670" width="10" height="80" as="geometry" />
        </mxCell>
        <mxCell id="7baba1c4bc27f4b0-4" value=":Cart" style="shape=umlLifeline;perimeter=lifelinePerimeter;whiteSpace=wrap;html=1;container=1;collapsible=0;recursiveResize=0;outlineConnect=0;rounded=1;shadow=0;comic=0;labelBackgroundColor=none;strokeWidth=1;fontFamily=Verdana;fontSize=12;align=center;" parent="1" vertex="1">
          <mxGeometry x="540" y="40" width="100" height="1020" as="geometry" />
        </mxCell>
        <mxCell id="7baba1c4bc27f4b0-5" value="flight" style="shape=umlLifeline;perimeter=lifelinePerimeter;whiteSpace=wrap;html=1;container=1;collapsible=0;recursiveResize=0;outlineConnect=0;rounded=1;shadow=0;comic=0;labelBackgroundColor=none;strokeWidth=1;fontFamily=Verdana;fontSize=12;align=center;" parent="1" vertex="1">
          <mxGeometry x="680" y="40" width="120" height="950" as="geometry" />
        </mxCell>
        <mxCell id="7baba1c4bc27f4b0-19" value="" style="html=1;points=[];perimeter=orthogonalPerimeter;rounded=0;shadow=0;comic=0;labelBackgroundColor=none;strokeWidth=1;fontFamily=Verdana;fontSize=12;align=center;" parent="7baba1c4bc27f4b0-5" vertex="1">
          <mxGeometry x="55" y="320" width="10" height="70" as="geometry" />
        </mxCell>
        <mxCell id="7baba1c4bc27f4b0-16" value="" style="html=1;points=[];perimeter=orthogonalPerimeter;rounded=0;shadow=0;comic=0;labelBackgroundColor=none;strokeWidth=1;fontFamily=Verdana;fontSize=12;align=center;" parent="1" vertex="1">
          <mxGeometry x="585" y="170" width="10" height="300" as="geometry" />
        </mxCell>
        <mxCell id="7baba1c4bc27f4b0-21" value="Waiting for checkout" style="html=1;verticalAlign=bottom;endArrow=open;dashed=1;endSize=8;labelBackgroundColor=none;fontFamily=Verdana;fontSize=12;edgeStyle=elbowEdgeStyle;elbow=vertical;" parent="1" source="7baba1c4bc27f4b0-4" target="7baba1c4bc27f4b0-2" edge="1">
          <mxGeometry relative="1" as="geometry">
            <mxPoint x="650" y="306" as="targetPoint" />
            <Array as="points">
              <mxPoint x="530" y="220" />
              <mxPoint x="550" y="260" />
              <mxPoint x="700" y="260" />
            </Array>
          </mxGeometry>
        </mxCell>
        <mxCell id="7baba1c4bc27f4b0-23" value="checkout" style="html=1;verticalAlign=bottom;endArrow=block;labelBackgroundColor=none;fontFamily=Verdana;fontSize=12;" parent="1" source="9SuFW2p2b2IJ2_6pO1Bd-6" target="7baba1c4bc27f4b0-10" edge="1">
          <mxGeometry relative="1" as="geometry">
            <mxPoint x="155" y="440" as="sourcePoint" />
            <mxPoint x="280" y="260" as="targetPoint" />
            <Array as="points">
              <mxPoint x="250" y="260" />
            </Array>
          </mxGeometry>
        </mxCell>
        <mxCell id="7baba1c4bc27f4b0-11" value="" style="html=1;verticalAlign=bottom;endArrow=block;labelBackgroundColor=none;fontFamily=Verdana;fontSize=12;edgeStyle=elbowEdgeStyle;elbow=vertical;exitX=0.943;exitY=0.011;exitDx=0;exitDy=0;exitPerimeter=0;" parent="1" source="9SuFW2p2b2IJ2_6pO1Bd-6" target="7baba1c4bc27f4b0-4" edge="1">
          <mxGeometry relative="1" as="geometry">
            <mxPoint x="155" y="180" as="sourcePoint" />
            <Array as="points">
              <mxPoint x="140" y="170" />
            </Array>
          </mxGeometry>
        </mxCell>
        <mxCell id="9SuFW2p2b2IJ2_6pO1Bd-10" value="Add a flight into cart" style="edgeLabel;html=1;align=center;verticalAlign=middle;resizable=0;points=[];" vertex="1" connectable="0" parent="7baba1c4bc27f4b0-11">
          <mxGeometry x="-0.5329" y="2" relative="1" as="geometry">
            <mxPoint x="3" y="-8" as="offset" />
          </mxGeometry>
        </mxCell>
        <mxCell id="9SuFW2p2b2IJ2_6pO1Bd-4" value="Customer" style="shape=umlLifeline;participant=umlActor;perimeter=lifelinePerimeter;whiteSpace=wrap;html=1;container=1;collapsible=0;recursiveResize=0;verticalAlign=top;spacingTop=36;outlineConnect=0;" vertex="1" parent="1">
          <mxGeometry x="120" y="40" width="20" height="960" as="geometry" />
        </mxCell>
        <mxCell id="9SuFW2p2b2IJ2_6pO1Bd-6" value="" style="html=1;points=[];perimeter=orthogonalPerimeter;" vertex="1" parent="9SuFW2p2b2IJ2_6pO1Bd-4">
          <mxGeometry x="5" y="130" width="10" height="360" as="geometry" />
        </mxCell>
        <mxCell id="9SuFW2p2b2IJ2_6pO1Bd-26" value="" style="html=1;points=[];perimeter=orthogonalPerimeter;" vertex="1" parent="9SuFW2p2b2IJ2_6pO1Bd-4">
          <mxGeometry x="5" y="630" width="10" height="180" as="geometry" />
        </mxCell>
        <mxCell id="9SuFW2p2b2IJ2_6pO1Bd-11" value="Ask for the payment" style="html=1;verticalAlign=bottom;endArrow=open;dashed=1;endSize=8;labelBackgroundColor=none;fontFamily=Verdana;fontSize=12;edgeStyle=elbowEdgeStyle;elbow=vertical;" edge="1" parent="1" source="7baba1c4bc27f4b0-10" target="9SuFW2p2b2IJ2_6pO1Bd-6">
          <mxGeometry relative="1" as="geometry">
            <mxPoint x="150" y="290" as="targetPoint" />
            <Array as="points">
              <mxPoint x="220" y="290" />
              <mxPoint x="369.98" y="330" />
              <mxPoint x="519.98" y="330" />
            </Array>
            <mxPoint x="290" y="290" as="sourcePoint" />
          </mxGeometry>
        </mxCell>
        <mxCell id="9SuFW2p2b2IJ2_6pO1Bd-12" value="input payment information" style="html=1;verticalAlign=bottom;endArrow=block;labelBackgroundColor=none;fontFamily=Verdana;fontSize=12;" edge="1" parent="1" source="9SuFW2p2b2IJ2_6pO1Bd-6">
          <mxGeometry relative="1" as="geometry">
            <mxPoint x="140" y="345" as="sourcePoint" />
            <mxPoint x="304.5" y="344.76" as="targetPoint" />
            <Array as="points">
              <mxPoint x="275" y="344.76" />
            </Array>
          </mxGeometry>
        </mxCell>
        <mxCell id="9SuFW2p2b2IJ2_6pO1Bd-13" value="Confirm the flight" style="html=1;verticalAlign=bottom;endArrow=block;rounded=0;entryX=0.11;entryY=0;entryDx=0;entryDy=0;entryPerimeter=0;" edge="1" parent="1" source="7baba1c4bc27f4b0-10" target="7baba1c4bc27f4b0-19">
          <mxGeometry width="80" relative="1" as="geometry">
            <mxPoint x="330" y="361" as="sourcePoint" />
            <mxPoint x="720" y="360" as="targetPoint" />
            <Array as="points">
              <mxPoint x="510" y="361" />
            </Array>
          </mxGeometry>
        </mxCell>
        <mxCell id="9SuFW2p2b2IJ2_6pO1Bd-14" value="Empty the cart" style="html=1;verticalAlign=bottom;endArrow=block;rounded=0;exitX=0.967;exitY=0.862;exitDx=0;exitDy=0;exitPerimeter=0;" edge="1" parent="1">
          <mxGeometry width="80" relative="1" as="geometry">
            <mxPoint x="314.8400000000001" y="470.02" as="sourcePoint" />
            <mxPoint x="585.17" y="470" as="targetPoint" />
            <Array as="points">
              <mxPoint x="520.17" y="470" />
            </Array>
          </mxGeometry>
        </mxCell>
        <mxCell id="9SuFW2p2b2IJ2_6pO1Bd-15" value="The flight is booked" style="html=1;verticalAlign=bottom;endArrow=open;dashed=1;endSize=8;labelBackgroundColor=none;fontFamily=Verdana;fontSize=12;edgeStyle=elbowEdgeStyle;elbow=vertical;" edge="1" parent="1" source="7baba1c4bc27f4b0-19" target="7baba1c4bc27f4b0-10">
          <mxGeometry relative="1" as="geometry">
            <mxPoint x="330" y="430" as="targetPoint" />
            <Array as="points">
              <mxPoint x="360" y="430" />
              <mxPoint x="550" y="430" />
              <mxPoint x="690.24" y="476" />
              <mxPoint x="840.24" y="476" />
            </Array>
            <mxPoint x="725" y="430" as="sourcePoint" />
          </mxGeometry>
        </mxCell>
        <mxCell id="9SuFW2p2b2IJ2_6pO1Bd-18" value="alt" style="shape=umlFrame;whiteSpace=wrap;html=1;" vertex="1" parent="1">
          <mxGeometry x="40" y="120" width="820" height="420" as="geometry" />
        </mxCell>
        <mxCell id="9SuFW2p2b2IJ2_6pO1Bd-24" value="[Customer has chosen a flight]" style="text;html=1;resizable=0;autosize=1;align=center;verticalAlign=middle;points=[];fillColor=none;strokeColor=none;rounded=0;" vertex="1" parent="1">
          <mxGeometry x="90" y="120" width="190" height="30" as="geometry" />
        </mxCell>
        <mxCell id="9SuFW2p2b2IJ2_6pO1Bd-28" value="Input location and date" style="html=1;verticalAlign=bottom;endArrow=block;rounded=0;entryX=0.043;entryY=0.001;entryDx=0;entryDy=0;entryPerimeter=0;" edge="1" parent="1" source="9SuFW2p2b2IJ2_6pO1Bd-26" target="9SuFW2p2b2IJ2_6pO1Bd-27">
          <mxGeometry width="80" relative="1" as="geometry">
            <mxPoint x="170" y="700" as="sourcePoint" />
            <mxPoint x="440" y="770" as="targetPoint" />
          </mxGeometry>
        </mxCell>
        <mxCell id="9SuFW2p2b2IJ2_6pO1Bd-32" value="Search for flights" style="html=1;verticalAlign=bottom;endArrow=block;rounded=0;entryX=0.5;entryY=0;entryDx=0;entryDy=0;entryPerimeter=0;exitX=0.957;exitY=0.118;exitDx=0;exitDy=0;exitPerimeter=0;" edge="1" parent="1" source="9SuFW2p2b2IJ2_6pO1Bd-27" target="9SuFW2p2b2IJ2_6pO1Bd-31">
          <mxGeometry width="80" relative="1" as="geometry">
            <mxPoint x="340" y="710" as="sourcePoint" />
            <mxPoint x="440.43000000000006" y="710.0000000000001" as="targetPoint" />
          </mxGeometry>
        </mxCell>
        <mxCell id="9SuFW2p2b2IJ2_6pO1Bd-33" value="return available flights" style="html=1;verticalAlign=bottom;endArrow=open;dashed=1;endSize=8;rounded=0;exitX=0.5;exitY=1;exitDx=0;exitDy=0;exitPerimeter=0;" edge="1" parent="1" source="9SuFW2p2b2IJ2_6pO1Bd-31" target="9SuFW2p2b2IJ2_6pO1Bd-27">
          <mxGeometry relative="1" as="geometry">
            <mxPoint x="440" y="790" as="sourcePoint" />
            <mxPoint x="360" y="790" as="targetPoint" />
          </mxGeometry>
        </mxCell>
        <mxCell id="9SuFW2p2b2IJ2_6pO1Bd-37" value="Loop" style="shape=umlFrame;whiteSpace=wrap;html=1;" vertex="1" parent="1">
          <mxGeometry x="31" y="630" width="820" height="420" as="geometry" />
        </mxCell>
        <mxCell id="9SuFW2p2b2IJ2_6pO1Bd-38" value="[Customer does not fight the suitable flight]" style="text;html=1;resizable=0;autosize=1;align=center;verticalAlign=middle;points=[];fillColor=none;strokeColor=none;rounded=0;" vertex="1" parent="1">
          <mxGeometry x="90" y="640" width="250" height="30" as="geometry" />
        </mxCell>
        <mxCell id="9SuFW2p2b2IJ2_6pO1Bd-17" value="Display a confirmation of the ticket" style="html=1;verticalAlign=bottom;endArrow=open;dashed=1;endSize=8;rounded=0;exitX=0.271;exitY=1.001;exitDx=0;exitDy=0;exitPerimeter=0;" edge="1" parent="1" source="7baba1c4bc27f4b0-10" target="9SuFW2p2b2IJ2_6pO1Bd-6">
          <mxGeometry relative="1" as="geometry">
            <mxPoint x="305" y="470" as="sourcePoint" />
            <mxPoint x="225" y="470" as="targetPoint" />
            <Array as="points">
              <mxPoint x="280" y="480" />
            </Array>
          </mxGeometry>
        </mxCell>
      </root>
    </mxGraphModel>
  </diagram>
</mxfile>
